<svg width="296" height="267" viewBox="0 0 296 267" fill="none" xmlns="http://www.w3.org/2000/svg">
<path d="M172.667 22.25H74C67.458 22.25 61.1839 24.5942 56.558 28.7669C51.9321 32.9396 49.3333 38.5989 49.3333 44.5V222.5C49.3333 228.401 51.9321 234.06 56.558 238.233C61.1839 242.406 67.458 244.75 74 244.75H222C228.542 244.75 234.816 242.406 239.442 238.233C244.068 234.06 246.667 228.401 246.667 222.5V89L172.667 22.25Z" stroke="white" stroke-width="11" stroke-linecap="round" stroke-linejoin="round"/>
<path d="M172.667 22.25V89H246.667" stroke="white" stroke-width="11" stroke-linecap="round" stroke-linejoin="round"/>
<path d="M197.333 144.625H98.6667" stroke="white" stroke-width="11" stroke-linecap="round" stroke-linejoin="round"/>
<path d="M197.333 189.125H98.6667" stroke="white" stroke-width="11" stroke-linecap="round" stroke-linejoin="round"/>
<path d="M123.333 100.125H111H98.6667" stroke="white" stroke-width="11" stroke-linecap="round" stroke-linejoin="round"/>
</svg>
