<svg width="91" height="85" viewBox="0 0 91 85" fill="none" xmlns="http://www.w3.org/2000/svg">
<path d="M53.0833 7.08337H22.75C20.7387 7.08337 18.8099 7.82965 17.3877 9.15803C15.9656 10.4864 15.1666 12.2881 15.1666 14.1667V70.8334C15.1666 72.712 15.9656 74.5137 17.3877 75.842C18.8099 77.1704 20.7387 77.9167 22.75 77.9167H68.25C70.2612 77.9167 72.19 77.1704 73.6122 75.842C75.0343 74.5137 75.8333 72.712 75.8333 70.8334V28.3334L53.0833 7.08337Z" stroke="#7A4141" stroke-width="4" stroke-linecap="round" stroke-linejoin="round"/>
<path d="M53.0834 7.08337V28.3334H75.8334" stroke="#7A4141" stroke-width="4" stroke-linecap="round" stroke-linejoin="round"/>
<path d="M60.6667 46.0416H30.3334" stroke="#7A4141" stroke-width="4" stroke-linecap="round" stroke-linejoin="round"/>
<path d="M60.6667 60.2084H30.3334" stroke="#7A4141" stroke-width="4" stroke-linecap="round" stroke-linejoin="round"/>
<path d="M37.9167 31.875H34.125H30.3334" stroke="#7A4141" stroke-width="4" stroke-linecap="round" stroke-linejoin="round"/>
</svg>
